<svg viewBox="0 0 100 100" fill="none" xmlns="http://www.w3.org/2000/svg">
  <defs>
    <linearGradient id="toothGradient" x1="0%" y1="0%" x2="100%" y2="100%">
      <stop offset="0%" stop-color="#14B8A6" />
      <stop offset="100%" stop-color="#0D9488" />
    </linearGradient>
  </defs>
  
  <path
    d="M30 20
       C40 15, 60 15, 70 20
       C80 25, 85 35, 85 45
       C85 55, 80 65, 75 80
       C73 85, 70 85, 68 80
       C65 75, 60 75, 58 80
       C55 85, 52 85, 50 80
       C48 85, 45 85, 42 80
       C40 75, 35 75, 32 80
       C30 85, 27 85, 25 80
       C20 65, 15 55, 15 45
       C15 35, 20 25, 30 20
       Z"
    stroke="url(#toothGradient)"
    stroke-width="3"
    stroke-linecap="round"
    stroke-linejoin="round"
    fill="none"
  />
</svg>